<svg width="44" height="43" viewBox="0 0 44 43" fill="none" xmlns="http://www.w3.org/2000/svg">
<ellipse opacity="0.702542" cx="21.6435" cy="21.5" rx="21.0369" ry="20.9868" stroke="white"/>
<path fill-rule="evenodd" clip-rule="evenodd" d="M30.3484 24.8544C30.0099 25.9779 29.4761 27.1014 28.7471 28.2249C27.6274 29.9866 26.5122 30.8674 25.4012 30.8674C24.9759 30.8674 24.3684 30.7236 23.5786 30.436C22.8322 30.1484 22.1769 30.0045 21.6127 30.0045C21.0833 30.0045 20.4671 30.1528 19.7641 30.4495C19.061 30.755 18.4882 30.9078 18.0456 30.9078C16.7263 30.9078 15.4201 29.7439 14.1269 27.416C12.8511 25.0701 12.2131 22.8096 12.2131 20.6345C12.2131 18.5852 12.7035 16.9044 13.6843 15.5922C14.6563 14.2979 15.8888 13.6508 17.3816 13.6508C18.0065 13.6508 18.7746 13.7856 19.6859 14.0552C20.5886 14.3249 21.1875 14.4597 21.4825 14.4597C21.8731 14.4597 22.4937 14.3069 23.3442 14.0013C24.2295 13.6957 24.9803 13.5429 25.5965 13.5429C26.6293 13.5429 27.5537 13.835 28.3695 14.4192C28.8208 14.7428 29.2722 15.1922 29.7235 15.7674C29.0378 16.3696 28.5431 16.8999 28.2393 17.3583C27.6752 18.2032 27.3931 19.1335 27.3931 20.1491C27.3931 21.2636 27.6925 22.2658 28.2914 23.1556C28.8903 24.0455 29.5759 24.6117 30.3484 24.8544ZM25.4533 9.03988C25.4533 9.58815 25.3274 10.1993 25.0758 10.8734C24.8154 11.5476 24.4118 12.1677 23.865 12.734C23.3963 13.2193 22.9276 13.5429 22.459 13.7047C22.1378 13.8036 21.6865 13.88 21.105 13.9339C21.131 12.5947 21.4695 11.4397 22.1205 10.469C22.7627 9.50726 23.8476 8.84214 25.3752 8.47363C25.3839 8.5006 25.3947 8.55003 25.4077 8.62194C25.4207 8.69384 25.4316 8.74327 25.4403 8.77024C25.4403 8.80619 25.4424 8.85113 25.4468 8.90506C25.4511 8.95899 25.4533 9.00393 25.4533 9.03988Z" fill="white"/>
</svg>
